<svg xmlns="http://www.w3.org/2000/svg" viewBox="0 0 228.94 181.77"><defs><style>.cls-1{fill:#8ec742;}.cls-2{fill:#d7df2b;}.cls-3{fill:#91c846;}.cls-4{fill:#8ec743;}.cls-5{fill:#d7df2d;}</style></defs><g id="Layer_2" data-name="Layer 2"><g id="Layer_1-2" data-name="Layer 1"><path class="cls-1" d="M12.51,99.39H184.18c-1,29.2-13.28,52.29-37.48,67.55C116.29,186.11,84.22,186.7,53,168.67,26.94,153.64,14.12,130,12.51,99.39Z"/><path class="cls-2" d="M124.67,30.4c-16.13,9.37-23.5,23.76-24.14,42C93.09,68,89,56.08,91.53,45.53,95.21,30.07,106,20.54,119.06,13c15.05-8.76,31.63-11.85,49.23-13-9.38,9.39-10.85,21.81-14.49,33.38-3.17,10.12-6,20.56-10.78,29.91-6.26,12.17-17.33,16.32-30.8,13.9-1.94-.35-3.88-.67-6.23-1.08a65.1,65.1,0,0,1,16.34-40.47c1.2-1.37,2.31-2.81,3.47-4.23l.83-1.37Z"/><path class="cls-3" d="M98.16,95.89q-43.48,0-87,0C3.53,95.89,0,93.68,0,89c0-4.54,3.72-6.84,11.38-6.84q87,0,173.94,0a25.05,25.05,0,0,1,5.94.57c3.37.85,6.32,3.21,5.34,6.62-.71,2.49-3.64,4.69-6.08,6.22-1.47.91-3.9.34-5.89.35Q141.39,95.91,98.16,95.89Z"/><path class="cls-4" d="M149.22,75.72c16.1-13.92,31.07-26.91,46.11-39.83,2.22-1.9,3.62-3.55,3.36-7-.61-8.12,6.34-15,14.54-15.25a15.29,15.29,0,0,1,15.71,14.79c.19,8.48-6.47,15.77-14.91,15.42-3.52-.15-5.48,1-7.59,3.39C198.85,55.64,191,63.84,183.5,72.31a9.51,9.51,0,0,1-8.2,3.48C167,75.55,158.77,75.72,149.22,75.72Z"/><path class="cls-5" d="M64.16,49.79c7.55,7.37,14.6,15,17.27,25.53-8.56,5.38-17.69,4.45-23.85-3.06-4.51-5.5-8-11.82-12.18-17.62S36.7,43.11,32.08,37c14.69-1.83,29.37-3.25,43,4.55,10.57,6.06,14.33,16.93,10.16,30C81.22,60.7,75.13,52.76,64.16,49.79Z"/></g></g></svg>